<svg version="1.1" viewBox="0.0 0.0 580.2729658792651 542.8582677165355" fill="none" stroke="none" stroke-linecap="square" stroke-miterlimit="10" xmlns:xlink="http://www.w3.org/1999/xlink" xmlns="http://www.w3.org/2000/svg"><clipPath id="p.0"><path d="m0 0l580.27295 0l0 542.8583l-580.27295 0l0 -542.8583z" clip-rule="nonzero"/></clipPath><g clip-path="url(#p.0)"><path fill="#000000" fill-opacity="0.0" d="m0 0l580.27295 0l0 542.8583l-580.27295 0z" fill-rule="evenodd"/><path fill="#6aa84f" d="m63.363518 200.57207l0 0c0 -86.10925 69.805336 -155.91458 155.91458 -155.91458l141.71414 0l0 0c41.351105 0 81.008606 16.426666 110.24826 45.666325c29.239655 29.239655 45.66629 68.89714 45.66629 110.24826l0 141.71413c0 86.10925 -69.8053 155.91458 -155.91455 155.91458l-141.71414 0c-86.10925 0 -155.91458 -69.80533 -155.91458 -155.91458z" fill-rule="evenodd"/><path fill="#ffffff" d="m288.84253 384.563l91.27557 0l0 0c39.207886 0 70.99213 -31.78424 70.99213 -70.99213l0 0l0 0c0 -18.828278 -7.479492 -36.885406 -20.79309 -50.199005c-13.313629 -13.313614 -31.370758 -20.793121 -50.199036 -20.793121l-7.1917114 0l0 -20.283463l-40.566925 40.56694l40.566925 40.566925l0 -20.283478l7.1917114 0c16.803375 0 30.425201 13.621826 30.425201 30.425201l0 0l0 0c0 16.803375 -13.621826 30.425201 -30.425201 30.425201l-91.27557 0z" fill-rule="evenodd"/><path fill="#ffffff" d="m145.84251 384.56168l72.30371 0l0 0c39.561996 0 71.633316 -32.07132 71.633316 -71.6333l0 0l0 0c0 -18.998322 -7.547058 -37.218536 -20.980927 -50.652374c-13.433838 -13.433853 -31.654053 -20.980911 -50.65239 -20.980911l-72.30371 0l0 -19.00113l0 35.98427l0 35.984253l0 -19.00113l72.30371 0l0 0c20.802933 0 37.667053 16.864105 37.667053 37.667023l0 0l0 0c0 20.802948 -16.86412 37.667053 -37.667053 37.667053l-72.30371 0z" fill-rule="evenodd"/><path fill="#ffffff" d="m148.3622 158.29396l72.99213 0l0 0c31.354126 0 56.771652 25.417542 56.771652 56.771652l0 3.178482l0 0c0 15.056778 -5.981262 29.496872 -16.628021 40.14363c-10.646759 10.6467285 -25.086853 16.628021 -40.14363 16.628021l-72.99213 0l0 15.467194l0 -32.44095l0 -32.44095l0 15.467194l72.99213 0c12.605438 0 22.824158 -10.2187195 22.824158 -22.824142l0 -3.178482l0 0c0 -12.605423 -10.2187195 -22.824142 -22.824158 -22.824142l-72.99213 0z" fill-rule="evenodd"/><path fill="#ffffff" d="m169.72966 158.29396l-20.283463 0l0 0c-5.3795166 0 -10.538696 2.1370087 -14.342575 5.9408875c-3.803894 3.803894 -5.9408875 8.963074 -5.9408875 14.342575l0 205.98425l40.566925 0z" fill-rule="evenodd"/><path fill="#ffffff" d="m310.2756 158.8202l0 0l0 0c5.684387 0 11.135986 2.2581177 15.155457 6.277603c4.01947 4.0194855 6.277588 9.471069 6.277588 15.155472l0 204.29921c0 2.1362305E-4 -1.5258789E-4 3.6621094E-4 -3.3569336E-4 3.6621094E-4l-42.865784 -3.6621094E-4l0 0c-2.1362305E-4 0 -3.6621094E-4 -1.5258789E-4 -3.6621094E-4 -3.6621094E-4l3.6621094E-4 -204.29884l0 0c0 -11.837158 9.595917 -21.433075 21.433075 -21.433075z" fill-rule="evenodd"/></g></svg>